# xmcd
#
# Track frame offsets: 
#        150
#        23266
#        41979
#        61181
#        76353
#        99544
#        118369
#        137606
#        152067
#        169134
#        190636
#        201637
#        213399
#        233620
#        257440
#        274359
#        292631
#
# Disc length: 4142 seconds
#
# Revision: 9
# Processed by: cddbd v1.5.2PL0 Copyright (c) Steve Scherf et al.
# Submitted via: ExactAudioCopy v1.0b1
#
DISCID=eb102c11
DTITLE=Various Artist - Jazz For Dinner 2
DYEAR=2003
DGENRE=Jazz
TTITLE0=The Peter Malick Group feat. Norah Jones - New York City
TTITLE1=Jane Monheit - Hit The Road To Dreamland
TTITLE2=Lizz Wright - Fire
TTITLE3=Anita O'Day - Waiter, Make Mine Blues
TTITLE4=Till Brönner - Tub Of Life
TTITLE5=Anders Widmark and Sara Isakson - To Open Up My Heart
TTITLE6=Shirley Horn - Yesterday
TTITLE7=Blossom Dearie - Our Love Is Here To Stay
TTITLE8=Madelaine Peyroux - I'm Gonna Sit Right Down (And Write Myself
TTITLE8=A Letter)
TTITLE9=Beady Belle - Shadow
TTITLE10=Elvis Costello - Still
TTITLE11=Nina Simone - I Put A Spell On You
TTITLE12=Holly Cole - God Only Knows
TTITLE13=Jamie Cullum - I Can't Get Started
TTITLE14=Patricia Barber - My Girl
TTITLE15=Diana Krall - You’ll Never Know
TTITLE16=Steve Klink Trio - I’ll Be Home
EXTD=YEAR: 2003
EXTT0=
EXTT1=
EXTT2=
EXTT3=
EXTT4=
EXTT5=
EXTT6=
EXTT7=
EXTT8=
EXTT9=
EXTT10=
EXTT11=
EXTT12=
EXTT13=
EXTT14=
EXTT15=
EXTT16=
PLAYORDER=
